<?xml version="1.0" encoding="utf-8"?>
<!-- Generator: Adobe Illustrator 24.0.0, SVG Export Plug-In . SVG Version: 6.00 Build 0)  -->
<svg version="1.1" id="logo" xmlns="http://www.w3.org/2000/svg" xmlns:xlink="http://www.w3.org/1999/xlink" x="0px" y="0px"
	 viewBox="0 0 451.23 110" style="enable-background:new 0 0 451.23 110;" xml:space="preserve">
<g>
	<path d="M107.73,10.25h22.72l25.43,72.16h0.26l24.78-72.16h22.46v92.17h-15.36V31.29h-0.26l-25.56,71.13h-13.3l-25.56-71.13h-0.26
		v71.13h-15.36L107.73,10.25L107.73,10.25z"/>
	<path d="M244.82,104.22c-5.34,0-10.09-0.88-14.26-2.65c-4.18-1.76-7.7-4.2-10.59-7.29c-2.88-3.1-5.08-6.8-6.58-11.1
		c-1.51-4.3-2.26-9.04-2.26-14.2c0-5.08,0.75-9.77,2.26-14.07c1.5-4.3,3.7-8,6.58-11.1c2.88-3.1,6.41-5.53,10.59-7.29
		c4.17-1.76,8.93-2.65,14.26-2.65c5.34,0,10.09,0.88,14.26,2.65c4.17,1.76,7.7,4.2,10.59,7.29c2.88,3.1,5.08,6.8,6.58,11.1
		c1.51,4.3,2.26,8.99,2.26,14.07c0,5.16-0.75,9.9-2.26,14.2s-3.7,8-6.58,11.1c-2.88,3.1-6.41,5.53-10.59,7.29
		C254.91,103.34,250.15,104.22,244.82,104.22z M244.82,92.61c3.27,0,6.11-0.69,8.52-2.07s4.39-3.18,5.94-5.42s2.69-4.75,3.42-7.55
		s1.1-5.66,1.1-8.58c0-2.84-0.37-5.68-1.1-8.52c-0.73-2.84-1.87-5.36-3.42-7.55c-1.55-2.19-3.53-3.98-5.94-5.36
		s-5.25-2.07-8.52-2.07s-6.11,0.69-8.52,2.07s-4.39,3.16-5.94,5.36c-1.55,2.19-2.69,4.71-3.42,7.55s-1.1,5.68-1.1,8.52
		c0,2.93,0.37,5.79,1.1,8.58c0.73,2.8,1.87,5.31,3.42,7.55c1.55,2.24,3.53,4.05,5.94,5.42C238.71,91.92,241.55,92.61,244.82,92.61z"
		/>
	<path d="M314.91,104.22c-5.34,0-10.09-0.88-14.27-2.65c-4.17-1.76-7.7-4.2-10.59-7.29c-2.88-3.1-5.08-6.8-6.58-11.1
		c-1.51-4.3-2.26-9.04-2.26-14.2c0-5.08,0.75-9.77,2.26-14.07s3.7-8,6.58-11.1c2.88-3.1,6.41-5.53,10.59-7.29
		c4.17-1.76,8.93-2.65,14.27-2.65c5.33,0,10.09,0.88,14.26,2.65c4.17,1.76,7.7,4.2,10.59,7.29c2.88,3.1,5.08,6.8,6.58,11.1
		c1.51,4.3,2.26,8.99,2.26,14.07c0,5.16-0.75,9.9-2.26,14.2s-3.7,8-6.58,11.1c-2.88,3.1-6.41,5.53-10.59,7.29
		C325,103.34,320.24,104.22,314.91,104.22z M314.91,92.61c3.27,0,6.11-0.69,8.52-2.07s4.39-3.18,5.94-5.42s2.69-4.75,3.42-7.55
		s1.1-5.66,1.1-8.58c0-2.84-0.37-5.68-1.1-8.52c-0.73-2.84-1.87-5.36-3.42-7.55c-1.55-2.19-3.53-3.98-5.94-5.36
		s-5.25-2.07-8.52-2.07s-6.11,0.69-8.52,2.07s-4.39,3.16-5.94,5.36c-1.55,2.19-2.69,4.71-3.42,7.55s-1.1,5.68-1.1,8.52
		c0,2.93,0.37,5.79,1.1,8.58c0.73,2.8,1.87,5.31,3.42,7.55c1.55,2.24,3.53,4.05,5.94,5.42C308.8,91.92,311.64,92.61,314.91,92.61z"
		/>
	<path d="M354.41,35.68h13.94v9.29h0.39c1.12-1.63,2.32-3.14,3.62-4.52c1.29-1.38,2.73-2.54,4.32-3.48c1.59-0.95,3.42-1.7,5.49-2.26
		c2.06-0.56,4.43-0.84,7.1-0.84c4.04,0,7.81,0.9,11.3,2.71c3.48,1.81,5.96,4.6,7.42,8.39c2.5-3.44,5.38-6.15,8.65-8.13
		c3.27-1.98,7.36-2.97,12.26-2.97c7.05,0,12.54,1.72,16.46,5.16c3.92,3.44,5.87,9.21,5.87,17.3v46.08h-14.72V63.43
		c0-2.67-0.09-5.1-0.26-7.29c-0.17-2.19-0.67-4.09-1.49-5.68c-0.82-1.59-2.04-2.82-3.68-3.68c-1.64-0.86-3.87-1.29-6.71-1.29
		c-4.99,0-8.61,1.55-10.84,4.65c-2.24,3.1-3.36,7.49-3.36,13.17v39.11h-14.72V59.56c0-4.65-0.84-8.15-2.52-10.52
		c-1.68-2.37-4.76-3.55-9.23-3.55c-1.89,0-3.72,0.39-5.49,1.16s-3.31,1.89-4.65,3.36c-1.34,1.46-2.41,3.27-3.23,5.42
		s-1.23,4.6-1.23,7.36v39.63h-14.72V35.68H354.41z"/>
</g>
<path d="M94.14,72.02c-6.98,18.32-24.71,31.33-45.48,31.33C21.78,103.35,0,81.56,0,54.69C0,33.7,13.29,15.82,31.91,8.99
	c-6.01,7.6-9.6,17.21-9.6,27.65c0,24.65,19.98,44.63,44.63,44.63C77.17,81.27,86.61,77.82,94.14,72.02z"/>
</svg>
